<svg xmlns="http://www.w3.org/2000/svg" viewBox="0 0 693 118">
  <defs>
    <linearGradient id="grad-dark" x1="5" y1="0" x2="688" y2="0" gradientUnits="userSpaceOnUse">
      <stop offset="0%" stop-color="#4285F4" />
      <stop offset="33%" stop-color="#EA4335" />
      <stop offset="66%" stop-color="#FBBC05" />
      <stop offset="100%" stop-color="#34A853" />
    </linearGradient>
    <linearGradient id="grad-light" x1="5" y1="0" x2="688" y2="0" gradientUnits="userSpaceOnUse">
      <stop offset="0%" stop-color="#4285F4" />
      <stop offset="33%" stop-color="#EA4335" />
      <stop offset="66%" stop-color="#FBBC05" />
      <stop offset="100%" stop-color="#34A853" />
    </linearGradient>
  </defs>
  <style>
    .art rect { fill: url(#grad-dark); }
    @media (prefers-color-scheme: light) {
      .art rect { fill: url(#grad-light); }
    }
  </style>
  <g class="art">
    <rect x="5.0" y="5.0" width="45.0" height="18.0"/>
    <rect x="50.0" y="11.5" width="6.3" height="1.5"/>
    <rect x="54.8" y="11.5" width="1.5" height="11.5"/>
    <rect x="50.0" y="15.0" width="2.8" height="1.5"/>
    <rect x="51.3" y="15.0" width="1.5" height="8.0"/>
    <rect x="72.5" y="5.0" width="37.5" height="18.0"/>
    <rect x="110.0" y="11.5" width="6.3" height="1.5"/>
    <rect x="114.8" y="11.5" width="1.5" height="11.5"/>
    <rect x="110.0" y="15.0" width="2.8" height="1.5"/>
    <rect x="111.3" y="15.0" width="1.5" height="8.0"/>
    <rect x="125.0" y="5.0" width="15.0" height="18.0"/>
    <rect x="140.0" y="11.5" width="6.3" height="1.5"/>
    <rect x="144.8" y="11.5" width="1.5" height="11.5"/>
    <rect x="140.0" y="15.0" width="2.8" height="1.5"/>
    <rect x="141.3" y="15.0" width="1.5" height="8.0"/>
    <rect x="170.0" y="5.0" width="15.0" height="18.0"/>
    <rect x="185.0" y="11.5" width="6.3" height="1.5"/>
    <rect x="189.8" y="11.5" width="1.5" height="11.5"/>
    <rect x="185.0" y="15.0" width="2.8" height="1.5"/>
    <rect x="186.3" y="15.0" width="1.5" height="8.0"/>
    <rect x="200.0" y="5.0" width="37.5" height="18.0"/>
    <rect x="237.5" y="11.5" width="6.3" height="1.5"/>
    <rect x="242.3" y="11.5" width="1.5" height="11.5"/>
    <rect x="237.5" y="15.0" width="2.8" height="1.5"/>
    <rect x="238.8" y="15.0" width="1.5" height="8.0"/>
    <rect x="252.5" y="5.0" width="22.5" height="18.0"/>
    <rect x="275.0" y="11.5" width="6.3" height="1.5"/>
    <rect x="279.8" y="11.5" width="1.5" height="11.5"/>
    <rect x="275.0" y="15.0" width="2.8" height="1.5"/>
    <rect x="276.3" y="15.0" width="1.5" height="8.0"/>
    <rect x="305.0" y="5.0" width="15.0" height="18.0"/>
    <rect x="320.0" y="11.5" width="6.3" height="1.5"/>
    <rect x="324.8" y="11.5" width="1.5" height="11.5"/>
    <rect x="320.0" y="15.0" width="2.8" height="1.5"/>
    <rect x="321.3" y="15.0" width="1.5" height="8.0"/>
    <rect x="357.5" y="5.0" width="15.0" height="18.0"/>
    <rect x="372.5" y="11.5" width="6.3" height="1.5"/>
    <rect x="377.3" y="11.5" width="1.5" height="11.5"/>
    <rect x="372.5" y="15.0" width="2.8" height="1.5"/>
    <rect x="373.8" y="15.0" width="1.5" height="8.0"/>
    <rect x="395.0" y="5.0" width="15.0" height="18.0"/>
    <rect x="410.0" y="11.5" width="6.3" height="1.5"/>
    <rect x="414.8" y="11.5" width="1.5" height="11.5"/>
    <rect x="410.0" y="15.0" width="2.8" height="1.5"/>
    <rect x="411.3" y="15.0" width="1.5" height="8.0"/>
    <rect x="417.5" y="5.0" width="15.0" height="18.0"/>
    <rect x="432.5" y="11.5" width="6.3" height="1.5"/>
    <rect x="437.3" y="11.5" width="1.5" height="11.5"/>
    <rect x="432.5" y="15.0" width="2.8" height="1.5"/>
    <rect x="433.8" y="15.0" width="1.5" height="8.0"/>
    <rect x="462.5" y="5.0" width="15.0" height="18.0"/>
    <rect x="477.5" y="11.5" width="6.3" height="1.5"/>
    <rect x="482.3" y="11.5" width="1.5" height="11.5"/>
    <rect x="477.5" y="15.0" width="2.8" height="1.5"/>
    <rect x="478.8" y="15.0" width="1.5" height="8.0"/>
    <rect x="485.0" y="5.0" width="22.5" height="18.0"/>
    <rect x="507.5" y="11.5" width="6.3" height="1.5"/>
    <rect x="512.3" y="11.5" width="1.5" height="11.5"/>
    <rect x="507.5" y="15.0" width="2.8" height="1.5"/>
    <rect x="508.8" y="15.0" width="1.5" height="8.0"/>
    <rect x="537.5" y="5.0" width="22.5" height="18.0"/>
    <rect x="560.0" y="11.5" width="6.3" height="1.5"/>
    <rect x="564.8" y="11.5" width="1.5" height="11.5"/>
    <rect x="560.0" y="15.0" width="2.8" height="1.5"/>
    <rect x="561.3" y="15.0" width="1.5" height="8.0"/>
    <rect x="575.0" y="5.0" width="37.5" height="18.0"/>
    <rect x="612.5" y="11.5" width="6.3" height="1.5"/>
    <rect x="617.3" y="11.5" width="1.5" height="11.5"/>
    <rect x="612.5" y="15.0" width="2.8" height="1.5"/>
    <rect x="613.8" y="15.0" width="1.5" height="8.0"/>
    <rect x="627.5" y="5.0" width="45.0" height="18.0"/>
    <rect x="672.5" y="11.5" width="6.3" height="1.5"/>
    <rect x="677.3" y="11.5" width="1.5" height="11.5"/>
    <rect x="672.5" y="15.0" width="2.8" height="1.5"/>
    <rect x="673.8" y="15.0" width="1.5" height="8.0"/>
    <rect x="5.0" y="23.0" width="15.0" height="18.0"/>
    <rect x="21.3" y="29.5" width="6.3" height="1.5"/>
    <rect x="21.3" y="29.5" width="1.5" height="11.5"/>
    <rect x="24.8" y="33.0" width="2.8" height="1.5"/>
    <rect x="24.8" y="33.0" width="1.5" height="8.0"/>
    <rect x="27.5" y="29.5" width="7.5" height="1.5"/>
    <rect x="27.5" y="33.0" width="7.5" height="1.5"/>
    <rect x="35.0" y="29.5" width="7.5" height="1.5"/>
    <rect x="35.0" y="33.0" width="7.5" height="1.5"/>
    <rect x="42.5" y="23.0" width="15.0" height="18.0"/>
    <rect x="57.5" y="29.5" width="6.3" height="1.5"/>
    <rect x="62.3" y="29.5" width="1.5" height="11.5"/>
    <rect x="57.5" y="33.0" width="2.8" height="1.5"/>
    <rect x="58.8" y="33.0" width="1.5" height="8.0"/>
    <rect x="65.0" y="23.0" width="15.0" height="18.0"/>
    <rect x="81.3" y="29.5" width="6.3" height="1.5"/>
    <rect x="81.3" y="29.5" width="1.5" height="11.5"/>
    <rect x="84.8" y="33.0" width="2.8" height="1.5"/>
    <rect x="84.8" y="33.0" width="1.5" height="8.0"/>
    <rect x="87.5" y="29.5" width="7.5" height="1.5"/>
    <rect x="87.5" y="33.0" width="7.5" height="1.5"/>
    <rect x="95.0" y="29.5" width="7.5" height="1.5"/>
    <rect x="95.0" y="33.0" width="7.5" height="1.5"/>
    <rect x="102.5" y="23.0" width="15.0" height="18.0"/>
    <rect x="117.5" y="29.5" width="6.3" height="1.5"/>
    <rect x="122.3" y="29.5" width="1.5" height="11.5"/>
    <rect x="117.5" y="33.0" width="2.8" height="1.5"/>
    <rect x="118.8" y="33.0" width="1.5" height="8.0"/>
    <rect x="125.0" y="23.0" width="15.0" height="18.0"/>
    <rect x="141.3" y="23.0" width="1.5" height="18.0"/>
    <rect x="144.8" y="23.0" width="1.5" height="18.0"/>
    <rect x="170.0" y="23.0" width="15.0" height="18.0"/>
    <rect x="186.3" y="23.0" width="1.5" height="18.0"/>
    <rect x="189.8" y="23.0" width="1.5" height="18.0"/>
    <rect x="192.5" y="23.0" width="15.0" height="18.0"/>
    <rect x="208.8" y="29.5" width="6.3" height="1.5"/>
    <rect x="208.8" y="29.5" width="1.5" height="11.5"/>
    <rect x="212.3" y="33.0" width="2.8" height="1.5"/>
    <rect x="212.3" y="33.0" width="1.5" height="8.0"/>
    <rect x="215.0" y="29.5" width="7.5" height="1.5"/>
    <rect x="215.0" y="33.0" width="7.5" height="1.5"/>
    <rect x="222.5" y="29.5" width="7.5" height="1.5"/>
    <rect x="222.5" y="33.0" width="7.5" height="1.5"/>
    <rect x="230.0" y="23.0" width="15.0" height="18.0"/>
    <rect x="245.0" y="29.5" width="6.3" height="1.5"/>
    <rect x="249.8" y="29.5" width="1.5" height="11.5"/>
    <rect x="245.0" y="33.0" width="2.8" height="1.5"/>
    <rect x="246.3" y="33.0" width="1.5" height="8.0"/>
    <rect x="252.5" y="23.0" width="30.0" height="18.0"/>
    <rect x="282.5" y="29.5" width="6.3" height="1.5"/>
    <rect x="287.3" y="29.5" width="1.5" height="11.5"/>
    <rect x="282.5" y="33.0" width="2.8" height="1.5"/>
    <rect x="283.8" y="33.0" width="1.5" height="8.0"/>
    <rect x="305.0" y="23.0" width="15.0" height="18.0"/>
    <rect x="321.3" y="23.0" width="1.5" height="18.0"/>
    <rect x="324.8" y="23.0" width="1.5" height="18.0"/>
    <rect x="357.5" y="23.0" width="15.0" height="18.0"/>
    <rect x="373.8" y="23.0" width="1.5" height="18.0"/>
    <rect x="377.3" y="23.0" width="1.5" height="18.0"/>
    <rect x="387.5" y="23.0" width="15.0" height="18.0"/>
    <rect x="403.8" y="29.5" width="6.3" height="1.5"/>
    <rect x="403.8" y="29.5" width="1.5" height="11.5"/>
    <rect x="407.3" y="33.0" width="2.8" height="1.5"/>
    <rect x="407.3" y="33.0" width="1.5" height="8.0"/>
    <rect x="414.8" y="23.0" width="1.5" height="8.0"/>
    <rect x="410.0" y="29.5" width="6.3" height="1.5"/>
    <rect x="411.3" y="23.0" width="1.5" height="10.0"/>
    <rect x="410.0" y="33.0" width="2.8" height="1.5"/>
    <rect x="417.5" y="23.0" width="15.0" height="18.0"/>
    <rect x="433.8" y="23.0" width="1.5" height="18.0"/>
    <rect x="437.3" y="23.0" width="1.5" height="18.0"/>
    <rect x="462.5" y="23.0" width="15.0" height="18.0"/>
    <rect x="478.8" y="23.0" width="1.5" height="18.0"/>
    <rect x="482.3" y="23.0" width="1.5" height="18.0"/>
    <rect x="485.0" y="23.0" width="30.0" height="18.0"/>
    <rect x="515.0" y="29.5" width="6.3" height="1.5"/>
    <rect x="519.8" y="29.5" width="1.5" height="11.5"/>
    <rect x="515.0" y="33.0" width="2.8" height="1.5"/>
    <rect x="516.3" y="33.0" width="1.5" height="8.0"/>
    <rect x="530.0" y="23.0" width="30.0" height="18.0"/>
    <rect x="561.3" y="23.0" width="1.5" height="18.0"/>
    <rect x="564.8" y="23.0" width="1.5" height="18.0"/>
    <rect x="567.5" y="23.0" width="15.0" height="18.0"/>
    <rect x="583.8" y="29.5" width="6.3" height="1.5"/>
    <rect x="583.8" y="29.5" width="1.5" height="11.5"/>
    <rect x="587.3" y="33.0" width="2.8" height="1.5"/>
    <rect x="587.3" y="33.0" width="1.5" height="8.0"/>
    <rect x="590.0" y="29.5" width="7.5" height="1.5"/>
    <rect x="590.0" y="33.0" width="7.5" height="1.5"/>
    <rect x="597.5" y="29.5" width="7.5" height="1.5"/>
    <rect x="597.5" y="33.0" width="7.5" height="1.5"/>
    <rect x="605.0" y="23.0" width="15.0" height="18.0"/>
    <rect x="620.0" y="29.5" width="6.3" height="1.5"/>
    <rect x="624.8" y="29.5" width="1.5" height="11.5"/>
    <rect x="620.0" y="33.0" width="2.8" height="1.5"/>
    <rect x="621.3" y="33.0" width="1.5" height="8.0"/>
    <rect x="627.5" y="23.0" width="15.0" height="18.0"/>
    <rect x="643.8" y="29.5" width="6.3" height="1.5"/>
    <rect x="643.8" y="29.5" width="1.5" height="11.5"/>
    <rect x="647.3" y="33.0" width="2.8" height="1.5"/>
    <rect x="647.3" y="33.0" width="1.5" height="8.0"/>
    <rect x="650.0" y="29.5" width="7.5" height="1.5"/>
    <rect x="650.0" y="33.0" width="7.5" height="1.5"/>
    <rect x="657.5" y="29.5" width="7.5" height="1.5"/>
    <rect x="657.5" y="33.0" width="7.5" height="1.5"/>
    <rect x="665.0" y="23.0" width="15.0" height="18.0"/>
    <rect x="680.0" y="29.5" width="6.3" height="1.5"/>
    <rect x="684.8" y="29.5" width="1.5" height="11.5"/>
    <rect x="680.0" y="33.0" width="2.8" height="1.5"/>
    <rect x="681.3" y="33.0" width="1.5" height="8.0"/>
    <rect x="5.0" y="41.0" width="45.0" height="18.0"/>
    <rect x="51.3" y="47.5" width="6.3" height="1.5"/>
    <rect x="51.3" y="47.5" width="1.5" height="11.5"/>
    <rect x="54.8" y="51.0" width="2.8" height="1.5"/>
    <rect x="54.8" y="51.0" width="1.5" height="8.0"/>
    <rect x="62.3" y="41.0" width="1.5" height="8.0"/>
    <rect x="57.5" y="47.5" width="6.3" height="1.5"/>
    <rect x="58.8" y="41.0" width="1.5" height="10.0"/>
    <rect x="57.5" y="51.0" width="2.8" height="1.5"/>
    <rect x="65.0" y="41.0" width="52.5" height="18.0"/>
    <rect x="118.8" y="41.0" width="1.5" height="18.0"/>
    <rect x="122.3" y="41.0" width="1.5" height="18.0"/>
    <rect x="125.0" y="41.0" width="15.0" height="18.0"/>
    <rect x="141.3" y="41.0" width="1.5" height="18.0"/>
    <rect x="144.8" y="41.0" width="1.5" height="18.0"/>
    <rect x="170.0" y="41.0" width="15.0" height="18.0"/>
    <rect x="186.3" y="41.0" width="1.5" height="18.0"/>
    <rect x="189.8" y="41.0" width="1.5" height="18.0"/>
    <rect x="192.5" y="41.0" width="52.5" height="18.0"/>
    <rect x="246.3" y="41.0" width="1.5" height="18.0"/>
    <rect x="249.8" y="41.0" width="1.5" height="18.0"/>
    <rect x="252.5" y="41.0" width="15.0" height="18.0"/>
    <rect x="268.8" y="47.5" width="6.3" height="1.5"/>
    <rect x="268.8" y="47.5" width="1.5" height="11.5"/>
    <rect x="272.3" y="51.0" width="2.8" height="1.5"/>
    <rect x="272.3" y="51.0" width="1.5" height="8.0"/>
    <rect x="275.0" y="41.0" width="15.0" height="18.0"/>
    <rect x="290.0" y="47.5" width="6.3" height="1.5"/>
    <rect x="294.8" y="47.5" width="1.5" height="11.5"/>
    <rect x="290.0" y="51.0" width="2.8" height="1.5"/>
    <rect x="291.3" y="51.0" width="1.5" height="8.0"/>
    <rect x="305.0" y="41.0" width="15.0" height="18.0"/>
    <rect x="321.3" y="41.0" width="1.5" height="18.0"/>
    <rect x="324.8" y="41.0" width="1.5" height="18.0"/>
    <rect x="357.5" y="41.0" width="37.5" height="18.0"/>
    <rect x="396.3" y="47.5" width="6.3" height="1.5"/>
    <rect x="396.3" y="47.5" width="1.5" height="11.5"/>
    <rect x="399.8" y="51.0" width="2.8" height="1.5"/>
    <rect x="399.8" y="51.0" width="1.5" height="8.0"/>
    <rect x="407.3" y="41.0" width="1.5" height="8.0"/>
    <rect x="402.5" y="47.5" width="6.3" height="1.5"/>
    <rect x="403.8" y="41.0" width="1.5" height="10.0"/>
    <rect x="402.5" y="51.0" width="2.8" height="1.5"/>
    <rect x="417.5" y="41.0" width="15.0" height="18.0"/>
    <rect x="433.8" y="41.0" width="1.5" height="18.0"/>
    <rect x="437.3" y="41.0" width="1.5" height="18.0"/>
    <rect x="462.5" y="41.0" width="15.0" height="18.0"/>
    <rect x="478.8" y="41.0" width="1.5" height="18.0"/>
    <rect x="482.3" y="41.0" width="1.5" height="18.0"/>
    <rect x="485.0" y="41.0" width="15.0" height="18.0"/>
    <rect x="501.3" y="47.5" width="6.3" height="1.5"/>
    <rect x="501.3" y="47.5" width="1.5" height="11.5"/>
    <rect x="504.8" y="51.0" width="2.8" height="1.5"/>
    <rect x="504.8" y="51.0" width="1.5" height="8.0"/>
    <rect x="507.5" y="41.0" width="30.0" height="18.0"/>
    <rect x="538.8" y="47.5" width="6.3" height="1.5"/>
    <rect x="538.8" y="47.5" width="1.5" height="11.5"/>
    <rect x="542.3" y="51.0" width="2.8" height="1.5"/>
    <rect x="542.3" y="51.0" width="1.5" height="8.0"/>
    <rect x="545.0" y="41.0" width="15.0" height="18.0"/>
    <rect x="561.3" y="41.0" width="1.5" height="18.0"/>
    <rect x="564.8" y="41.0" width="1.5" height="18.0"/>
    <rect x="567.5" y="41.0" width="52.5" height="18.0"/>
    <rect x="621.3" y="41.0" width="1.5" height="18.0"/>
    <rect x="624.8" y="41.0" width="1.5" height="18.0"/>
    <rect x="627.5" y="41.0" width="45.0" height="18.0"/>
    <rect x="673.8" y="47.5" width="6.3" height="1.5"/>
    <rect x="673.8" y="47.5" width="1.5" height="11.5"/>
    <rect x="677.3" y="51.0" width="2.8" height="1.5"/>
    <rect x="677.3" y="51.0" width="1.5" height="8.0"/>
    <rect x="684.8" y="41.0" width="1.5" height="8.0"/>
    <rect x="680.0" y="47.5" width="6.3" height="1.5"/>
    <rect x="681.3" y="41.0" width="1.5" height="10.0"/>
    <rect x="680.0" y="51.0" width="2.8" height="1.5"/>
    <rect x="5.0" y="59.0" width="15.0" height="18.0"/>
    <rect x="21.3" y="65.5" width="6.3" height="1.5"/>
    <rect x="21.3" y="65.5" width="1.5" height="11.5"/>
    <rect x="24.8" y="69.0" width="2.8" height="1.5"/>
    <rect x="24.8" y="69.0" width="1.5" height="8.0"/>
    <rect x="27.5" y="65.5" width="7.5" height="1.5"/>
    <rect x="27.5" y="69.0" width="7.5" height="1.5"/>
    <rect x="35.0" y="65.5" width="7.5" height="1.5"/>
    <rect x="35.0" y="69.0" width="7.5" height="1.5"/>
    <rect x="42.5" y="65.5" width="7.5" height="1.5"/>
    <rect x="42.5" y="69.0" width="7.5" height="1.5"/>
    <rect x="54.8" y="59.0" width="1.5" height="8.0"/>
    <rect x="50.0" y="65.5" width="6.3" height="1.5"/>
    <rect x="51.3" y="59.0" width="1.5" height="10.0"/>
    <rect x="50.0" y="69.0" width="2.8" height="1.5"/>
    <rect x="65.0" y="59.0" width="15.0" height="18.0"/>
    <rect x="81.3" y="65.5" width="6.3" height="1.5"/>
    <rect x="81.3" y="65.5" width="1.5" height="11.5"/>
    <rect x="84.8" y="69.0" width="2.8" height="1.5"/>
    <rect x="84.8" y="69.0" width="1.5" height="8.0"/>
    <rect x="87.5" y="65.5" width="7.5" height="1.5"/>
    <rect x="87.5" y="69.0" width="7.5" height="1.5"/>
    <rect x="95.0" y="65.5" width="7.5" height="1.5"/>
    <rect x="95.0" y="69.0" width="7.5" height="1.5"/>
    <rect x="102.5" y="59.0" width="15.0" height="18.0"/>
    <rect x="118.8" y="59.0" width="1.5" height="18.0"/>
    <rect x="122.3" y="59.0" width="1.5" height="18.0"/>
    <rect x="126.3" y="59.0" width="1.5" height="8.0"/>
    <rect x="126.3" y="65.5" width="6.3" height="1.5"/>
    <rect x="129.8" y="59.0" width="1.5" height="10.0"/>
    <rect x="129.8" y="69.0" width="2.8" height="1.5"/>
    <rect x="132.5" y="59.0" width="15.0" height="18.0"/>
    <rect x="147.5" y="65.5" width="6.3" height="1.5"/>
    <rect x="152.3" y="65.5" width="1.5" height="11.5"/>
    <rect x="147.5" y="69.0" width="2.8" height="1.5"/>
    <rect x="148.8" y="69.0" width="1.5" height="8.0"/>
    <rect x="162.5" y="59.0" width="15.0" height="18.0"/>
    <rect x="178.8" y="65.5" width="6.3" height="1.5"/>
    <rect x="178.8" y="65.5" width="1.5" height="11.5"/>
    <rect x="182.3" y="69.0" width="2.8" height="1.5"/>
    <rect x="182.3" y="69.0" width="1.5" height="8.0"/>
    <rect x="189.8" y="59.0" width="1.5" height="8.0"/>
    <rect x="185.0" y="65.5" width="6.3" height="1.5"/>
    <rect x="186.3" y="59.0" width="1.5" height="10.0"/>
    <rect x="185.0" y="69.0" width="2.8" height="1.5"/>
    <rect x="192.5" y="59.0" width="15.0" height="18.0"/>
    <rect x="208.8" y="65.5" width="6.3" height="1.5"/>
    <rect x="208.8" y="65.5" width="1.5" height="11.5"/>
    <rect x="212.3" y="69.0" width="2.8" height="1.5"/>
    <rect x="212.3" y="69.0" width="1.5" height="8.0"/>
    <rect x="215.0" y="65.5" width="7.5" height="1.5"/>
    <rect x="215.0" y="69.0" width="7.5" height="1.5"/>
    <rect x="222.5" y="65.5" width="7.5" height="1.5"/>
    <rect x="222.5" y="69.0" width="7.5" height="1.5"/>
    <rect x="230.0" y="59.0" width="15.0" height="18.0"/>
    <rect x="246.3" y="59.0" width="1.5" height="18.0"/>
    <rect x="249.8" y="59.0" width="1.5" height="18.0"/>
    <rect x="252.5" y="59.0" width="15.0" height="18.0"/>
    <rect x="268.8" y="59.0" width="1.5" height="18.0"/>
    <rect x="272.3" y="59.0" width="1.5" height="18.0"/>
    <rect x="276.3" y="59.0" width="1.5" height="8.0"/>
    <rect x="276.3" y="65.5" width="6.3" height="1.5"/>
    <rect x="279.8" y="59.0" width="1.5" height="10.0"/>
    <rect x="279.8" y="69.0" width="2.8" height="1.5"/>
    <rect x="282.5" y="59.0" width="15.0" height="18.0"/>
    <rect x="297.5" y="65.5" width="6.3" height="1.5"/>
    <rect x="302.3" y="65.5" width="1.5" height="11.5"/>
    <rect x="297.5" y="69.0" width="2.8" height="1.5"/>
    <rect x="298.8" y="69.0" width="1.5" height="8.0"/>
    <rect x="305.0" y="59.0" width="15.0" height="18.0"/>
    <rect x="321.3" y="59.0" width="1.5" height="18.0"/>
    <rect x="324.8" y="59.0" width="1.5" height="18.0"/>
    <rect x="357.5" y="59.0" width="15.0" height="18.0"/>
    <rect x="373.8" y="65.5" width="6.3" height="1.5"/>
    <rect x="373.8" y="65.5" width="1.5" height="11.5"/>
    <rect x="377.3" y="69.0" width="2.8" height="1.5"/>
    <rect x="377.3" y="69.0" width="1.5" height="8.0"/>
    <rect x="380.0" y="65.5" width="7.5" height="1.5"/>
    <rect x="380.0" y="69.0" width="7.5" height="1.5"/>
    <rect x="387.5" y="59.0" width="15.0" height="18.0"/>
    <rect x="402.5" y="65.5" width="6.3" height="1.5"/>
    <rect x="407.3" y="65.5" width="1.5" height="11.5"/>
    <rect x="402.5" y="69.0" width="2.8" height="1.5"/>
    <rect x="403.8" y="69.0" width="1.5" height="8.0"/>
    <rect x="417.5" y="59.0" width="15.0" height="18.0"/>
    <rect x="433.8" y="59.0" width="1.5" height="18.0"/>
    <rect x="437.3" y="59.0" width="1.5" height="18.0"/>
    <rect x="462.5" y="59.0" width="15.0" height="18.0"/>
    <rect x="478.8" y="59.0" width="1.5" height="18.0"/>
    <rect x="482.3" y="59.0" width="1.5" height="18.0"/>
    <rect x="485.0" y="59.0" width="15.0" height="18.0"/>
    <rect x="501.3" y="59.0" width="1.5" height="18.0"/>
    <rect x="504.8" y="59.0" width="1.5" height="18.0"/>
    <rect x="508.8" y="59.0" width="1.5" height="8.0"/>
    <rect x="508.8" y="65.5" width="6.3" height="1.5"/>
    <rect x="512.3" y="59.0" width="1.5" height="10.0"/>
    <rect x="512.3" y="69.0" width="2.8" height="1.5"/>
    <rect x="515.0" y="59.0" width="15.0" height="18.0"/>
    <rect x="531.3" y="65.5" width="6.3" height="1.5"/>
    <rect x="531.3" y="65.5" width="1.5" height="11.5"/>
    <rect x="534.8" y="69.0" width="2.8" height="1.5"/>
    <rect x="534.8" y="69.0" width="1.5" height="8.0"/>
    <rect x="542.3" y="59.0" width="1.5" height="8.0"/>
    <rect x="537.5" y="65.5" width="6.3" height="1.5"/>
    <rect x="538.8" y="59.0" width="1.5" height="10.0"/>
    <rect x="537.5" y="69.0" width="2.8" height="1.5"/>
    <rect x="545.0" y="59.0" width="15.0" height="18.0"/>
    <rect x="561.3" y="59.0" width="1.5" height="18.0"/>
    <rect x="564.8" y="59.0" width="1.5" height="18.0"/>
    <rect x="567.5" y="59.0" width="15.0" height="18.0"/>
    <rect x="583.8" y="65.5" width="6.3" height="1.5"/>
    <rect x="583.8" y="65.5" width="1.5" height="11.5"/>
    <rect x="587.3" y="69.0" width="2.8" height="1.5"/>
    <rect x="587.3" y="69.0" width="1.5" height="8.0"/>
    <rect x="590.0" y="65.5" width="7.5" height="1.5"/>
    <rect x="590.0" y="69.0" width="7.5" height="1.5"/>
    <rect x="597.5" y="65.5" width="7.5" height="1.5"/>
    <rect x="597.5" y="69.0" width="7.5" height="1.5"/>
    <rect x="605.0" y="59.0" width="15.0" height="18.0"/>
    <rect x="621.3" y="59.0" width="1.5" height="18.0"/>
    <rect x="624.8" y="59.0" width="1.5" height="18.0"/>
    <rect x="627.5" y="59.0" width="15.0" height="18.0"/>
    <rect x="643.8" y="65.5" width="6.3" height="1.5"/>
    <rect x="643.8" y="65.5" width="1.5" height="11.5"/>
    <rect x="647.3" y="69.0" width="2.8" height="1.5"/>
    <rect x="647.3" y="69.0" width="1.5" height="8.0"/>
    <rect x="650.0" y="65.5" width="7.5" height="1.5"/>
    <rect x="650.0" y="69.0" width="7.5" height="1.5"/>
    <rect x="657.5" y="65.5" width="7.5" height="1.5"/>
    <rect x="657.5" y="69.0" width="7.5" height="1.5"/>
    <rect x="665.0" y="59.0" width="15.0" height="18.0"/>
    <rect x="680.0" y="65.5" width="6.3" height="1.5"/>
    <rect x="684.8" y="65.5" width="1.5" height="11.5"/>
    <rect x="680.0" y="69.0" width="2.8" height="1.5"/>
    <rect x="681.3" y="69.0" width="1.5" height="8.0"/>
    <rect x="5.0" y="77.0" width="15.0" height="18.0"/>
    <rect x="21.3" y="77.0" width="1.5" height="18.0"/>
    <rect x="24.8" y="77.0" width="1.5" height="18.0"/>
    <rect x="65.0" y="77.0" width="15.0" height="18.0"/>
    <rect x="81.3" y="77.0" width="1.5" height="18.0"/>
    <rect x="84.8" y="77.0" width="1.5" height="18.0"/>
    <rect x="102.5" y="77.0" width="15.0" height="18.0"/>
    <rect x="118.8" y="77.0" width="1.5" height="18.0"/>
    <rect x="122.3" y="77.0" width="1.5" height="18.0"/>
    <rect x="133.8" y="77.0" width="1.5" height="8.0"/>
    <rect x="133.8" y="83.5" width="6.3" height="1.5"/>
    <rect x="137.3" y="77.0" width="1.5" height="10.0"/>
    <rect x="137.3" y="87.0" width="2.8" height="1.5"/>
    <rect x="140.0" y="77.0" width="30.0" height="18.0"/>
    <rect x="171.3" y="83.5" width="6.3" height="1.5"/>
    <rect x="171.3" y="83.5" width="1.5" height="11.5"/>
    <rect x="174.8" y="87.0" width="2.8" height="1.5"/>
    <rect x="174.8" y="87.0" width="1.5" height="8.0"/>
    <rect x="182.3" y="77.0" width="1.5" height="8.0"/>
    <rect x="177.5" y="83.5" width="6.3" height="1.5"/>
    <rect x="178.8" y="77.0" width="1.5" height="10.0"/>
    <rect x="177.5" y="87.0" width="2.8" height="1.5"/>
    <rect x="192.5" y="77.0" width="15.0" height="18.0"/>
    <rect x="208.8" y="77.0" width="1.5" height="18.0"/>
    <rect x="212.3" y="77.0" width="1.5" height="18.0"/>
    <rect x="230.0" y="77.0" width="15.0" height="18.0"/>
    <rect x="246.3" y="77.0" width="1.5" height="18.0"/>
    <rect x="249.8" y="77.0" width="1.5" height="18.0"/>
    <rect x="252.5" y="77.0" width="15.0" height="18.0"/>
    <rect x="268.8" y="77.0" width="1.5" height="18.0"/>
    <rect x="272.3" y="77.0" width="1.5" height="18.0"/>
    <rect x="283.8" y="77.0" width="1.5" height="8.0"/>
    <rect x="283.8" y="83.5" width="6.3" height="1.5"/>
    <rect x="287.3" y="77.0" width="1.5" height="10.0"/>
    <rect x="287.3" y="87.0" width="2.8" height="1.5"/>
    <rect x="290.0" y="77.0" width="30.0" height="18.0"/>
    <rect x="321.3" y="77.0" width="1.5" height="18.0"/>
    <rect x="324.8" y="77.0" width="1.5" height="18.0"/>
    <rect x="357.5" y="77.0" width="15.0" height="18.0"/>
    <rect x="373.8" y="77.0" width="1.5" height="18.0"/>
    <rect x="377.3" y="77.0" width="1.5" height="18.0"/>
    <rect x="395.0" y="77.0" width="15.0" height="18.0"/>
    <rect x="410.0" y="83.5" width="6.3" height="1.5"/>
    <rect x="414.8" y="83.5" width="1.5" height="11.5"/>
    <rect x="410.0" y="87.0" width="2.8" height="1.5"/>
    <rect x="411.3" y="87.0" width="1.5" height="8.0"/>
    <rect x="418.8" y="77.0" width="1.5" height="8.0"/>
    <rect x="418.8" y="83.5" width="6.3" height="1.5"/>
    <rect x="422.3" y="77.0" width="1.5" height="10.0"/>
    <rect x="422.3" y="87.0" width="2.8" height="1.5"/>
    <rect x="425.0" y="77.0" width="45.0" height="18.0"/>
    <rect x="471.3" y="83.5" width="6.3" height="1.5"/>
    <rect x="471.3" y="83.5" width="1.5" height="11.5"/>
    <rect x="474.8" y="87.0" width="2.8" height="1.5"/>
    <rect x="474.8" y="87.0" width="1.5" height="8.0"/>
    <rect x="482.3" y="77.0" width="1.5" height="8.0"/>
    <rect x="477.5" y="83.5" width="6.3" height="1.5"/>
    <rect x="478.8" y="77.0" width="1.5" height="10.0"/>
    <rect x="477.5" y="87.0" width="2.8" height="1.5"/>
    <rect x="485.0" y="77.0" width="15.0" height="18.0"/>
    <rect x="501.3" y="77.0" width="1.5" height="18.0"/>
    <rect x="504.8" y="77.0" width="1.5" height="18.0"/>
    <rect x="516.3" y="77.0" width="1.5" height="8.0"/>
    <rect x="516.3" y="83.5" width="6.3" height="1.5"/>
    <rect x="519.8" y="77.0" width="1.5" height="10.0"/>
    <rect x="519.8" y="87.0" width="2.8" height="1.5"/>
    <rect x="522.5" y="83.5" width="7.5" height="1.5"/>
    <rect x="522.5" y="87.0" width="7.5" height="1.5"/>
    <rect x="534.8" y="77.0" width="1.5" height="8.0"/>
    <rect x="530.0" y="83.5" width="6.3" height="1.5"/>
    <rect x="531.3" y="77.0" width="1.5" height="10.0"/>
    <rect x="530.0" y="87.0" width="2.8" height="1.5"/>
    <rect x="545.0" y="77.0" width="15.0" height="18.0"/>
    <rect x="561.3" y="77.0" width="1.5" height="18.0"/>
    <rect x="564.8" y="77.0" width="1.5" height="18.0"/>
    <rect x="567.5" y="77.0" width="15.0" height="18.0"/>
    <rect x="583.8" y="77.0" width="1.5" height="18.0"/>
    <rect x="587.3" y="77.0" width="1.5" height="18.0"/>
    <rect x="605.0" y="77.0" width="15.0" height="18.0"/>
    <rect x="621.3" y="77.0" width="1.5" height="18.0"/>
    <rect x="624.8" y="77.0" width="1.5" height="18.0"/>
    <rect x="627.5" y="77.0" width="15.0" height="18.0"/>
    <rect x="643.8" y="77.0" width="1.5" height="18.0"/>
    <rect x="647.3" y="77.0" width="1.5" height="18.0"/>
    <rect x="665.0" y="77.0" width="15.0" height="18.0"/>
    <rect x="681.3" y="77.0" width="1.5" height="18.0"/>
    <rect x="684.8" y="77.0" width="1.5" height="18.0"/>
    <rect x="6.3" y="95.0" width="1.5" height="8.0"/>
    <rect x="6.3" y="101.5" width="6.3" height="1.5"/>
    <rect x="9.8" y="95.0" width="1.5" height="10.0"/>
    <rect x="9.8" y="105.0" width="2.8" height="1.5"/>
    <rect x="12.5" y="101.5" width="7.5" height="1.5"/>
    <rect x="12.5" y="105.0" width="7.5" height="1.5"/>
    <rect x="24.8" y="95.0" width="1.5" height="8.0"/>
    <rect x="20.0" y="101.5" width="6.3" height="1.5"/>
    <rect x="21.3" y="95.0" width="1.5" height="10.0"/>
    <rect x="20.0" y="105.0" width="2.8" height="1.5"/>
    <rect x="66.3" y="95.0" width="1.5" height="8.0"/>
    <rect x="66.3" y="101.5" width="6.3" height="1.5"/>
    <rect x="69.8" y="95.0" width="1.5" height="10.0"/>
    <rect x="69.8" y="105.0" width="2.8" height="1.5"/>
    <rect x="72.5" y="101.5" width="7.5" height="1.5"/>
    <rect x="72.5" y="105.0" width="7.5" height="1.5"/>
    <rect x="84.8" y="95.0" width="1.5" height="8.0"/>
    <rect x="80.0" y="101.5" width="6.3" height="1.5"/>
    <rect x="81.3" y="95.0" width="1.5" height="10.0"/>
    <rect x="80.0" y="105.0" width="2.8" height="1.5"/>
    <rect x="103.8" y="95.0" width="1.5" height="8.0"/>
    <rect x="103.8" y="101.5" width="6.3" height="1.5"/>
    <rect x="107.3" y="95.0" width="1.5" height="10.0"/>
    <rect x="107.3" y="105.0" width="2.8" height="1.5"/>
    <rect x="110.0" y="101.5" width="7.5" height="1.5"/>
    <rect x="110.0" y="105.0" width="7.5" height="1.5"/>
    <rect x="122.3" y="95.0" width="1.5" height="8.0"/>
    <rect x="117.5" y="101.5" width="6.3" height="1.5"/>
    <rect x="118.8" y="95.0" width="1.5" height="10.0"/>
    <rect x="117.5" y="105.0" width="2.8" height="1.5"/>
    <rect x="141.3" y="95.0" width="1.5" height="8.0"/>
    <rect x="141.3" y="101.5" width="6.3" height="1.5"/>
    <rect x="144.8" y="95.0" width="1.5" height="10.0"/>
    <rect x="144.8" y="105.0" width="2.8" height="1.5"/>
    <rect x="147.5" y="101.5" width="7.5" height="1.5"/>
    <rect x="147.5" y="105.0" width="7.5" height="1.5"/>
    <rect x="155.0" y="101.5" width="7.5" height="1.5"/>
    <rect x="155.0" y="105.0" width="7.5" height="1.5"/>
    <rect x="162.5" y="101.5" width="7.5" height="1.5"/>
    <rect x="162.5" y="105.0" width="7.5" height="1.5"/>
    <rect x="174.8" y="95.0" width="1.5" height="8.0"/>
    <rect x="170.0" y="101.5" width="6.3" height="1.5"/>
    <rect x="171.3" y="95.0" width="1.5" height="10.0"/>
    <rect x="170.0" y="105.0" width="2.8" height="1.5"/>
    <rect x="193.8" y="95.0" width="1.5" height="8.0"/>
    <rect x="193.8" y="101.5" width="6.3" height="1.5"/>
    <rect x="197.3" y="95.0" width="1.5" height="10.0"/>
    <rect x="197.3" y="105.0" width="2.8" height="1.5"/>
    <rect x="200.0" y="101.5" width="7.5" height="1.5"/>
    <rect x="200.0" y="105.0" width="7.5" height="1.5"/>
    <rect x="212.3" y="95.0" width="1.5" height="8.0"/>
    <rect x="207.5" y="101.5" width="6.3" height="1.5"/>
    <rect x="208.8" y="95.0" width="1.5" height="10.0"/>
    <rect x="207.5" y="105.0" width="2.8" height="1.5"/>
    <rect x="231.3" y="95.0" width="1.5" height="8.0"/>
    <rect x="231.3" y="101.5" width="6.3" height="1.5"/>
    <rect x="234.8" y="95.0" width="1.5" height="10.0"/>
    <rect x="234.8" y="105.0" width="2.8" height="1.5"/>
    <rect x="237.5" y="101.5" width="7.5" height="1.5"/>
    <rect x="237.5" y="105.0" width="7.5" height="1.5"/>
    <rect x="249.8" y="95.0" width="1.5" height="8.0"/>
    <rect x="245.0" y="101.5" width="6.3" height="1.5"/>
    <rect x="246.3" y="95.0" width="1.5" height="10.0"/>
    <rect x="245.0" y="105.0" width="2.8" height="1.5"/>
    <rect x="253.8" y="95.0" width="1.5" height="8.0"/>
    <rect x="253.8" y="101.5" width="6.3" height="1.5"/>
    <rect x="257.3" y="95.0" width="1.5" height="10.0"/>
    <rect x="257.3" y="105.0" width="2.8" height="1.5"/>
    <rect x="260.0" y="101.5" width="7.5" height="1.5"/>
    <rect x="260.0" y="105.0" width="7.5" height="1.5"/>
    <rect x="272.3" y="95.0" width="1.5" height="8.0"/>
    <rect x="267.5" y="101.5" width="6.3" height="1.5"/>
    <rect x="268.8" y="95.0" width="1.5" height="10.0"/>
    <rect x="267.5" y="105.0" width="2.8" height="1.5"/>
    <rect x="291.3" y="95.0" width="1.5" height="8.0"/>
    <rect x="291.3" y="101.5" width="6.3" height="1.5"/>
    <rect x="294.8" y="95.0" width="1.5" height="10.0"/>
    <rect x="294.8" y="105.0" width="2.8" height="1.5"/>
    <rect x="297.5" y="101.5" width="7.5" height="1.5"/>
    <rect x="297.5" y="105.0" width="7.5" height="1.5"/>
    <rect x="305.0" y="101.5" width="7.5" height="1.5"/>
    <rect x="305.0" y="105.0" width="7.5" height="1.5"/>
    <rect x="312.5" y="101.5" width="7.5" height="1.5"/>
    <rect x="312.5" y="105.0" width="7.5" height="1.5"/>
    <rect x="324.8" y="95.0" width="1.5" height="8.0"/>
    <rect x="320.0" y="101.5" width="6.3" height="1.5"/>
    <rect x="321.3" y="95.0" width="1.5" height="10.0"/>
    <rect x="320.0" y="105.0" width="2.8" height="1.5"/>
    <rect x="358.8" y="95.0" width="1.5" height="8.0"/>
    <rect x="358.8" y="101.5" width="6.3" height="1.5"/>
    <rect x="362.3" y="95.0" width="1.5" height="10.0"/>
    <rect x="362.3" y="105.0" width="2.8" height="1.5"/>
    <rect x="365.0" y="101.5" width="7.5" height="1.5"/>
    <rect x="365.0" y="105.0" width="7.5" height="1.5"/>
    <rect x="377.3" y="95.0" width="1.5" height="8.0"/>
    <rect x="372.5" y="101.5" width="6.3" height="1.5"/>
    <rect x="373.8" y="95.0" width="1.5" height="10.0"/>
    <rect x="372.5" y="105.0" width="2.8" height="1.5"/>
    <rect x="396.3" y="95.0" width="1.5" height="8.0"/>
    <rect x="396.3" y="101.5" width="6.3" height="1.5"/>
    <rect x="399.8" y="95.0" width="1.5" height="10.0"/>
    <rect x="399.8" y="105.0" width="2.8" height="1.5"/>
    <rect x="402.5" y="101.5" width="7.5" height="1.5"/>
    <rect x="402.5" y="105.0" width="7.5" height="1.5"/>
    <rect x="414.8" y="95.0" width="1.5" height="8.0"/>
    <rect x="410.0" y="101.5" width="6.3" height="1.5"/>
    <rect x="411.3" y="95.0" width="1.5" height="10.0"/>
    <rect x="410.0" y="105.0" width="2.8" height="1.5"/>
    <rect x="426.3" y="95.0" width="1.5" height="8.0"/>
    <rect x="426.3" y="101.5" width="6.3" height="1.5"/>
    <rect x="429.8" y="95.0" width="1.5" height="10.0"/>
    <rect x="429.8" y="105.0" width="2.8" height="1.5"/>
    <rect x="432.5" y="101.5" width="7.5" height="1.5"/>
    <rect x="432.5" y="105.0" width="7.5" height="1.5"/>
    <rect x="440.0" y="101.5" width="7.5" height="1.5"/>
    <rect x="440.0" y="105.0" width="7.5" height="1.5"/>
    <rect x="447.5" y="101.5" width="7.5" height="1.5"/>
    <rect x="447.5" y="105.0" width="7.5" height="1.5"/>
    <rect x="455.0" y="101.5" width="7.5" height="1.5"/>
    <rect x="455.0" y="105.0" width="7.5" height="1.5"/>
    <rect x="462.5" y="101.5" width="7.5" height="1.5"/>
    <rect x="462.5" y="105.0" width="7.5" height="1.5"/>
    <rect x="474.8" y="95.0" width="1.5" height="8.0"/>
    <rect x="470.0" y="101.5" width="6.3" height="1.5"/>
    <rect x="471.3" y="95.0" width="1.5" height="10.0"/>
    <rect x="470.0" y="105.0" width="2.8" height="1.5"/>
    <rect x="486.3" y="95.0" width="1.5" height="8.0"/>
    <rect x="486.3" y="101.5" width="6.3" height="1.5"/>
    <rect x="489.8" y="95.0" width="1.5" height="10.0"/>
    <rect x="489.8" y="105.0" width="2.8" height="1.5"/>
    <rect x="492.5" y="101.5" width="7.5" height="1.5"/>
    <rect x="492.5" y="105.0" width="7.5" height="1.5"/>
    <rect x="504.8" y="95.0" width="1.5" height="8.0"/>
    <rect x="500.0" y="101.5" width="6.3" height="1.5"/>
    <rect x="501.3" y="95.0" width="1.5" height="10.0"/>
    <rect x="500.0" y="105.0" width="2.8" height="1.5"/>
    <rect x="546.3" y="95.0" width="1.5" height="8.0"/>
    <rect x="546.3" y="101.5" width="6.3" height="1.5"/>
    <rect x="549.8" y="95.0" width="1.5" height="10.0"/>
    <rect x="549.8" y="105.0" width="2.8" height="1.5"/>
    <rect x="552.5" y="101.5" width="7.5" height="1.5"/>
    <rect x="552.5" y="105.0" width="7.5" height="1.5"/>
    <rect x="564.8" y="95.0" width="1.5" height="8.0"/>
    <rect x="560.0" y="101.5" width="6.3" height="1.5"/>
    <rect x="561.3" y="95.0" width="1.5" height="10.0"/>
    <rect x="560.0" y="105.0" width="2.8" height="1.5"/>
    <rect x="568.8" y="95.0" width="1.5" height="8.0"/>
    <rect x="568.8" y="101.5" width="6.3" height="1.5"/>
    <rect x="572.3" y="95.0" width="1.5" height="10.0"/>
    <rect x="572.3" y="105.0" width="2.8" height="1.5"/>
    <rect x="575.0" y="101.5" width="7.5" height="1.5"/>
    <rect x="575.0" y="105.0" width="7.5" height="1.5"/>
    <rect x="587.3" y="95.0" width="1.5" height="8.0"/>
    <rect x="582.5" y="101.5" width="6.3" height="1.5"/>
    <rect x="583.8" y="95.0" width="1.5" height="10.0"/>
    <rect x="582.5" y="105.0" width="2.8" height="1.5"/>
    <rect x="606.3" y="95.0" width="1.5" height="8.0"/>
    <rect x="606.3" y="101.5" width="6.3" height="1.5"/>
    <rect x="609.8" y="95.0" width="1.5" height="10.0"/>
    <rect x="609.8" y="105.0" width="2.8" height="1.5"/>
    <rect x="612.5" y="101.5" width="7.5" height="1.5"/>
    <rect x="612.5" y="105.0" width="7.5" height="1.5"/>
    <rect x="624.8" y="95.0" width="1.5" height="8.0"/>
    <rect x="620.0" y="101.5" width="6.3" height="1.5"/>
    <rect x="621.3" y="95.0" width="1.5" height="10.0"/>
    <rect x="620.0" y="105.0" width="2.8" height="1.5"/>
    <rect x="628.8" y="95.0" width="1.5" height="8.0"/>
    <rect x="628.8" y="101.5" width="6.3" height="1.5"/>
    <rect x="632.3" y="95.0" width="1.5" height="10.0"/>
    <rect x="632.3" y="105.0" width="2.8" height="1.5"/>
    <rect x="635.0" y="101.5" width="7.5" height="1.5"/>
    <rect x="635.0" y="105.0" width="7.5" height="1.5"/>
    <rect x="647.3" y="95.0" width="1.5" height="8.0"/>
    <rect x="642.5" y="101.5" width="6.3" height="1.5"/>
    <rect x="643.8" y="95.0" width="1.5" height="10.0"/>
    <rect x="642.5" y="105.0" width="2.8" height="1.5"/>
    <rect x="666.3" y="95.0" width="1.5" height="8.0"/>
    <rect x="666.3" y="101.5" width="6.3" height="1.5"/>
    <rect x="669.8" y="95.0" width="1.5" height="10.0"/>
    <rect x="669.8" y="105.0" width="2.8" height="1.5"/>
    <rect x="672.5" y="101.5" width="7.5" height="1.5"/>
    <rect x="672.5" y="105.0" width="7.5" height="1.5"/>
    <rect x="684.8" y="95.0" width="1.5" height="8.0"/>
    <rect x="680.0" y="101.5" width="6.3" height="1.5"/>
    <rect x="681.3" y="95.0" width="1.5" height="10.0"/>
    <rect x="680.0" y="105.0" width="2.8" height="1.5"/>
  </g>
</svg>
